<svg id="Layer_1" data-name="Layer 1" xmlns="http://www.w3.org/2000/svg" viewBox="0 0 1096.3 207.13"><defs><style>.cls-1,.cls-2{fill:#4b474f;stroke:#4b474f;stroke-miterlimit:10;}.cls-2{stroke-width:1.5px;}.cls-3,.cls-4{fill:#ffdd2e;}.cls-3{fill-rule:evenodd;}</style></defs><title>Solar_Village_Logo</title><path class="cls-1" d="M99.34,30.89a9,9,0,0,1-2.15,2.55,4.78,4.78,0,0,1-3,.85,7.79,7.79,0,0,1-4.47-1.93,73.56,73.56,0,0,0-6.46-4.25,53,53,0,0,0-9.41-4.25,40.56,40.56,0,0,0-13.31-1.92,39.39,39.39,0,0,0-13,2A27.73,27.73,0,0,0,38.1,29.3a22.11,22.11,0,0,0-5.73,8,25.46,25.46,0,0,0-1.92,9.92,18.32,18.32,0,0,0,3.34,11.27,28.74,28.74,0,0,0,8.84,7.65,68.17,68.17,0,0,0,12.46,5.5q7,2.31,14.28,4.81t14.28,5.61a50.37,50.37,0,0,1,12.46,7.87A36,36,0,0,1,105,101.59q3.35,6.91,3.34,17a55,55,0,0,1-3.62,20,46,46,0,0,1-10.6,16.26A49.53,49.53,0,0,1,77,165.73a63,63,0,0,1-23.06,4A70.31,70.31,0,0,1,25.18,164,67.42,67.42,0,0,1,3,148.51l6.35-10.43A8.15,8.15,0,0,1,11.58,136a5.15,5.15,0,0,1,2.89-.85q2.38,0,5.44,2.55t7.65,5.61a59.69,59.69,0,0,0,11.1,5.61,44.07,44.07,0,0,0,15.92,2.54,42,42,0,0,0,13.94-2.15,29.68,29.68,0,0,0,10.37-6.06,26.37,26.37,0,0,0,6.51-9.35,31.24,31.24,0,0,0,2.27-12.12q0-7.36-3.34-12.07a27.73,27.73,0,0,0-8.79-7.88,61.42,61.42,0,0,0-12.4-5.38L48.86,91.91a145,145,0,0,1-14.28-5.39,46.53,46.53,0,0,1-12.41-7.93,36.48,36.48,0,0,1-8.78-12.18Q10,59.11,10.05,48.34a43.23,43.23,0,0,1,13-30.93,47,47,0,0,1,15.69-10A57.59,57.59,0,0,1,60.25,3.69,68.74,68.74,0,0,1,85.06,8a57.28,57.28,0,0,1,19.61,12.46Z" transform="translate(-2.4 -2.29)"/><path class="cls-1" d="M263.43,2.79V169.7H243.26V2.79Z" transform="translate(-2.4 -2.29)"/><path class="cls-1" d="M383.31,167.88h-8.95a10.77,10.77,0,0,1-4.76-.9q-1.82-.91-2.38-3.85L365,152.47q-4.54,4.08-8.84,7.31a50.12,50.12,0,0,1-9.07,5.44,46.75,46.75,0,0,1-10.14,3.34,57.87,57.87,0,0,1-12,1.14,40.94,40.94,0,0,1-12.52-1.87,28.6,28.6,0,0,1-10.15-5.61,26.81,26.81,0,0,1-6.85-9.46,33.09,33.09,0,0,1-2.55-13.55,25.16,25.16,0,0,1,3.74-13.08q3.74-6.3,12.07-11.16t21.81-8q13.49-3.12,33-3.57v-9q0-13.38-5.72-20.23t-16.94-6.85a35.84,35.84,0,0,0-12.41,1.87,46.32,46.32,0,0,0-8.72,4.19c-2.46,1.55-4.57,2.94-6.35,4.19a9.11,9.11,0,0,1-5.27,1.87,6,6,0,0,1-3.57-1.08,8,8,0,0,1-2.43-2.66l-3.63-6.46A65.52,65.52,0,0,1,319,55.59a63.37,63.37,0,0,1,24.36-4.53,43.54,43.54,0,0,1,17.11,3.17A35.22,35.22,0,0,1,373,63.07a37.52,37.52,0,0,1,7.71,13.71,57.34,57.34,0,0,1,2.6,17.68ZM331,155.53a41.66,41.66,0,0,0,9.75-1.07A38.62,38.62,0,0,0,349,151.4a43.83,43.83,0,0,0,7.48-4.82,64.07,64.07,0,0,0,7-6.46V116.21a167.85,167.85,0,0,0-23.68,2.21A66.1,66.1,0,0,0,323.94,123q-6.12,2.83-8.9,6.69a14.39,14.39,0,0,0-2.78,8.61,18.88,18.88,0,0,0,1.48,7.82,14.73,14.73,0,0,0,4,5.38,15.54,15.54,0,0,0,5.89,3.06A27,27,0,0,0,331,155.53Z" transform="translate(-2.4 -2.29)"/><path class="cls-1" d="M413.9,168.1V53.32h11.56c2.19,0,3.7.42,4.53,1.25a7.61,7.61,0,0,1,1.71,4.3l1.35,17.9q5.9-12,14.56-18.75A32.2,32.2,0,0,1,468,51.28a31.84,31.84,0,0,1,8.61,1.08,30.25,30.25,0,0,1,7.14,3l-2.6,15.07a3.41,3.41,0,0,1-3.52,2.83,17.51,17.51,0,0,1-4.87-1.07,30.64,30.64,0,0,0-9.18-1.08q-10.53,0-17.62,6.12T434.07,95V168.1Z" transform="translate(-2.4 -2.29)"/><path class="cls-2" d="M489.7,9.25h2a1.36,1.36,0,0,1,1.36,1.13L555.2,159.5c.37.83.71,1.64,1,2.44s.56,1.52.79,2.2c.22-.68.49-1.41.8-2.2s.63-1.61,1-2.44L620.91,10.38a1.5,1.5,0,0,1,1.59-1.13h1.82L558.14,167.88h-2.26Z" transform="translate(-2.4 -2.29)"/><path class="cls-2" d="M658.08,15.59a5.71,5.71,0,0,1-2,4.25,6.24,6.24,0,0,1-4.36,1.87,6.1,6.1,0,0,1-4.48-1.87,5.88,5.88,0,0,1-1.87-4.25,6.12,6.12,0,0,1,1.87-4.47,6.1,6.1,0,0,1,4.48-1.87,6.24,6.24,0,0,1,4.36,1.87A5.93,5.93,0,0,1,658.08,15.59Z" transform="translate(-2.4 -2.29)"/><rect class="cls-2" x="647.98" y="49.7" width="2.72" height="115.9"/><path class="cls-2" d="M703.4,4.71V167.88h-2.71V4.71Z" transform="translate(-2.4 -2.29)"/><path class="cls-2" d="M753.71,4.71V167.88H751V4.71Z" transform="translate(-2.4 -2.29)"/><path class="cls-2" d="M866.34,166.07c-1.06,0-1.59-.6-1.59-1.82l-.68-18a121.24,121.24,0,0,1-9.52,9,54.94,54.94,0,0,1-10.08,6.81,51.75,51.75,0,0,1-11.45,4.3,55.94,55.94,0,0,1-13.59,1.53,34.37,34.37,0,0,1-10-1.53,26.29,26.29,0,0,1-9.12-4.87,25.05,25.05,0,0,1-6.63-8.61A29.37,29.37,0,0,1,791.1,140a22.18,22.18,0,0,1,4.36-13.43q4.37-6,13.37-10.14t22.72-6.63a217.62,217.62,0,0,1,32.52-2.89V92.64A58.42,58.42,0,0,0,862.15,77a33.23,33.23,0,0,0-5.67-11.68,24.65,24.65,0,0,0-9.4-7.31,31.94,31.94,0,0,0-13.15-2.54,42.09,42.09,0,0,0-10.65,1.24,46.57,46.57,0,0,0-8.5,3.06,36.63,36.63,0,0,0-6.51,4c-1.86,1.43-3.46,2.76-4.82,4S801,70,800.17,70.77,798.73,72,798.35,72a1.86,1.86,0,0,1-1.13-.68l-.46-.45a64.65,64.65,0,0,1,16.89-13.15,43.43,43.43,0,0,1,20.28-4.53,36.12,36.12,0,0,1,14.68,2.72,26.69,26.69,0,0,1,10.25,7.82,33.14,33.14,0,0,1,6,12.4,65,65,0,0,1,1.92,16.49v73.43Zm-46.91-.46a51.44,51.44,0,0,0,14.16-1.81,52,52,0,0,0,11.67-4.87,61.61,61.61,0,0,0,9.92-7.08q4.59-4,8.89-8.44V109.19q-35.69,1.13-53,8.89T793.82,140a27.47,27.47,0,0,0,2.21,11.5,23.16,23.16,0,0,0,5.78,7.93,23.61,23.61,0,0,0,8.16,4.65A30,30,0,0,0,819.43,165.61Z" transform="translate(-2.4 -2.29)"/><path class="cls-2" d="M939.31,53.21a44.06,44.06,0,0,1,13.43,1.93,38.71,38.71,0,0,1,10.82,5.32h27v.45a1.41,1.41,0,0,1-.57,1.14,2,2,0,0,1-1.24.45L966.51,63a31.74,31.74,0,0,1,7.76,11.21,37.56,37.56,0,0,1,2.66,14.39A38,38,0,0,1,974.27,103a31.61,31.61,0,0,1-7.59,11.16,34.27,34.27,0,0,1-11.84,7.19,44.42,44.42,0,0,1-15.53,2.56,43,43,0,0,1-19.49-4.2,32.26,32.26,0,0,0-5.21,3.63,27.37,27.37,0,0,0-4.08,4.31,20.8,20.8,0,0,0-2.66,4.64,12,12,0,0,0-1,4.53q0,5.67,3.52,8.67a22.65,22.65,0,0,0,9.29,4.48,68.86,68.86,0,0,0,13.14,1.87q7.36.39,15.07.73T963,153.72a49.84,49.84,0,0,1,13.15,3.11,22.84,22.84,0,0,1,9.29,6.58q3.51,4.25,3.51,11.49a25.39,25.39,0,0,1-3.45,12.75,35.56,35.56,0,0,1-9.75,10.77,50.05,50.05,0,0,1-15.18,7.48,66.63,66.63,0,0,1-19.89,2.77,74.54,74.54,0,0,1-19.83-2.38,47.32,47.32,0,0,1-14.5-6.46,28.1,28.1,0,0,1-8.9-9.51,23.59,23.59,0,0,1-3-11.56,23.06,23.06,0,0,1,6.46-16.38q6.45-6.84,17.45-10.59a23.15,23.15,0,0,1-10.14-5q-3.8-3.47-3.8-9.92a13.28,13.28,0,0,1,1-4.76,23.6,23.6,0,0,1,2.67-4.93,27.69,27.69,0,0,1,4.13-4.64,29.58,29.58,0,0,1,5.5-3.91,30.88,30.88,0,0,1-11.84-12.24,37,37,0,0,1-4.14-17.79,38.19,38.19,0,0,1,2.61-14.33,31,31,0,0,1,7.53-11.16,35,35,0,0,1,11.85-7.25A43.94,43.94,0,0,1,939.31,53.21ZM986.45,174.9q0-6.35-3.12-10.14a20.34,20.34,0,0,0-8.33-5.89A46.45,46.45,0,0,0,963.11,156q-6.69-.78-13.94-1.18t-14.39-.74a95.57,95.57,0,0,1-13.15-1.48,70.13,70.13,0,0,0-9.85,4.42,33.25,33.25,0,0,0-7.76,5.78,25.33,25.33,0,0,0-5,7.26,20.84,20.84,0,0,0-1.81,8.72,20.5,20.5,0,0,0,3.06,10.82,28.18,28.18,0,0,0,8.67,8.78,45.53,45.53,0,0,0,13.65,5.89,70.06,70.06,0,0,0,18.13,2.15,63.67,63.67,0,0,0,17.22-2.31,53.14,53.14,0,0,0,14.62-6.46,34.43,34.43,0,0,0,10.14-9.92A22.83,22.83,0,0,0,986.45,174.9Zm-47.14-53.25A42.38,42.38,0,0,0,954,119.27,30.62,30.62,0,0,0,965,112.53a29.3,29.3,0,0,0,6.85-10.48,36.87,36.87,0,0,0,2.38-13.49,36.21,36.21,0,0,0-2.43-13.48,29.61,29.61,0,0,0-7-10.48,31,31,0,0,0-11-6.74,45.39,45.39,0,0,0-29,0,31,31,0,0,0-11,6.74,29.45,29.45,0,0,0-7,10.48,36,36,0,0,0-2.44,13.48,36.06,36.06,0,0,0,2.44,13.49,29.45,29.45,0,0,0,7,10.48,31.11,31.11,0,0,0,11,6.74A41.61,41.61,0,0,0,939.31,121.65Z" transform="translate(-2.4 -2.29)"/><path class="cls-2" d="M1056.47,53.21a42.5,42.5,0,0,1,16.32,3.12,36.55,36.55,0,0,1,13.2,9.23,43.6,43.6,0,0,1,8.78,15,60.64,60.64,0,0,1,3.17,20.46,1,1,0,0,1-.39.85,1.7,1.7,0,0,1-1,.28h-85.67a21.88,21.88,0,0,0-.23,3.06v3.06A82.51,82.51,0,0,0,1014,132.7a50.48,50.48,0,0,0,9.35,17.79A39.51,39.51,0,0,0,1038,161.42a46.71,46.71,0,0,0,19,3.74,56.17,56.17,0,0,0,16.15-2,57.91,57.91,0,0,0,11.22-4.53,40.44,40.44,0,0,0,6.8-4.53q2.33-2,3-2a1.32,1.32,0,0,1,.91.45l.45.46a26,26,0,0,1-5.72,4.92,52.51,52.51,0,0,1-9,4.71,67.82,67.82,0,0,1-11.28,3.51,58.21,58.21,0,0,1-12.58,1.36,50.06,50.06,0,0,1-20.5-4,41.61,41.61,0,0,1-15.36-11.62,53.62,53.62,0,0,1-9.69-18.58,84.54,84.54,0,0,1-3.4-24.93,72.31,72.31,0,0,1,3.29-22.38,49.81,49.81,0,0,1,9.52-17.39A42.77,42.77,0,0,1,1036,57.23,49.66,49.66,0,0,1,1056.47,53.21Zm0,2.27a47.81,47.81,0,0,0-18,3.22,40.49,40.49,0,0,0-13.76,9.07,43.53,43.53,0,0,0-9.24,14.11,64,64,0,0,0-4.48,18.24h84.42a56.91,56.91,0,0,0-3-19.09,39.7,39.7,0,0,0-8.21-14,35,35,0,0,0-12.41-8.61A40,40,0,0,0,1056.47,55.48Z" transform="translate(-2.4 -2.29)"/><path class="cls-3" d="M207.33,45.61c.4.78-.34,1.48-.88,2.16s-1.09,1.31-1.8,2.11C202,52.76,202.86,53,203,54.72c-1.48,1.59-4.12,1.21-4.94,3.67a3.17,3.17,0,0,0,3,4c2.7,0,3.59-1.29,5.71-2.46,3-1.65,6.82-5.11,8.16-8,.82-1.77,3.64-7.73,3.75-9.53.13-2-.71-4.06-3.59-3.75-1.88.2-3.76.53-5.63.79-6.24.9-18.93,8.73-15.37,15.17.61,1.13,3.19,1.71,4-1.38a5.18,5.18,0,0,1,1.14-2.38,17.79,17.79,0,0,1,2.23-2,18.73,18.73,0,0,1,5.81-3.29Z" transform="translate(-2.4 -2.29)"/><path class="cls-3" d="M169.39,24.28c.71,1.62,1.41,5.09,1.08,6.66s-2.32,4.07-3.1,5.39c-2.13,3.6,4.16,8.32,7.52.35.39-.91.74-1.91,1-2.81,1.42-4.28.08-8-.17-12.94,0-1.06-.41-2.58-.41-3.47,0-1.14.18-2.79-1-3.75a3,3,0,0,0-3.17-.08c-1.14.45-3.51,2.89-5,4.53-.77.86-1.19,1.73-1.84,2.53a14.67,14.67,0,0,0-1.76,2.69,23.66,23.66,0,0,0-2.94,5.46c-1.22,2.88-1.44,2.69-1,6.15.27,2.2.39,4.1,3.61,5.1A2.36,2.36,0,0,0,165.13,39c.9-1.74-.91-3.24-.17-6.57.25-1.16,1-1.77,1.56-2.75a12.63,12.63,0,0,0,1.09-2.81,6.74,6.74,0,0,1,1.78-2.6Z" transform="translate(-2.4 -2.29)"/><path class="cls-3" d="M143.8,53.59c2,1.78,4.87,3.33,6.62,1s-.89-4.07-2.52-6.07c-1.89-2.32-6.65-9.16-5.47-12a11.72,11.72,0,0,1,2.41,2.29c1.63,2.24,3.66,3.43,5.14,7,.71,1.73,1.07,3.69,3.35,4.55,2.47.93,6.64-1.22,4.52-7.36-.33-1-.47-1.44-.85-2.39-.83-2.09-.5-4.61-3.17-7.5-1.77-1.93-3.77-1.86-5.35-2.78-3.24-1.89-6.88-7.5-10.53-5.64-3.39,1.74-2.58,8.27-3,10s-1.17,1.51-.71,5,3.05,7,5.2,9.79c3.68,4.84,1.13,1.29,4.32,4.06Z" transform="translate(-2.4 -2.29)"/><path class="cls-3" d="M215.36,67.84a18.14,18.14,0,0,0-3-.23c-1.29,0-2.22,1.47-3.56,1.69-2.76.45-5-3.87,2.09-6.95a10.86,10.86,0,0,1,3.35-.48c2.89.06,3.83.3,6,1.81,3,2.06,1.65,3.41-.25,5.66a24.44,24.44,0,0,1-7.1,4.55c-4.59,1.22-4.95-2-4.28-2.81,1-1.2,1.82,0,3.25-.8a17.86,17.86,0,0,0,3.5-2.44Z" transform="translate(-2.4 -2.29)"/><path class="cls-3" d="M187.56,36c1.39,2.81-5.5,9.87-2.19,12.68,1.34,1.12,2.91.91,4.22-.78A39.8,39.8,0,0,0,193.37,40a6.62,6.62,0,0,0,0-4.62c-.68-2.53-.34-8.68-5.11-6.24a6.45,6.45,0,0,0-1.72,1.09,22,22,0,0,1-2.81,2.49c-1.76,1.52-3.87,5.95-4.45,7.65-1.11,3.23,1.4,5.62,3,5.27,2.75-.61,1.16-2.78,1.65-3.92.29-2.09,3.22-5.31,3.66-5.7Z" transform="translate(-2.4 -2.29)"/><path class="cls-4" d="M215.23,113a10.51,10.51,0,0,1-1.68,2.81,8.73,8.73,0,0,1,.28,2.81q0,4.25-4.23,16.05c-1.12,3.09-4.5,8.15-10.41,15.2-2,2.54-5.06,6.19-9.57,11.25a53.18,53.18,0,0,1-9.85,6.48c-4.78,2.54-8.72,3.93-11.26,3.93a32.05,32.05,0,0,1-12.66-3.09c-5.07-2.25-8.72-5.06-11.25-8.72-3.1-4.22-5.63-10.7-8.16-18.86a77.35,77.35,0,0,1-1.7-30.4,8.8,8.8,0,0,1-1.12-3.09c0,.84,1.69-7,5.06-24.2a45.36,45.36,0,0,0,9.57-12.39,2.19,2.19,0,0,1,2-.83V67.08c3.35-4.68,6.18-7,9.57-13.51,1.39-2.69,5.35-1.68,7.32-1.68,7.32,0,13.22,2,17.73,6.18a57.51,57.51,0,0,1,6.47,4.78c3.09,2,5.07,4.23,5.91,6.47l2.38,2.82,10,12.25c.28.3,1.13,4.07,2.54,8a55.18,55.18,0,0,1,3.09,5.92,44.29,44.29,0,0,1,.28,7.31A52.65,52.65,0,0,1,215.23,113Zm-25.61-3.1a96.72,96.72,0,0,0-1.68-13.79,10.83,10.83,0,0,0-1.7-2.81,41,41,0,0,0-3.37-12.38l-3.66-5.06c-.84.27-1.69,1.4-3.09,2.81l-13,29c-5.35,16.61-8.17,23.83-8.17,32.83.29,4.22,1.42,6.19,3.67,6.19,1.12,0,7.87-3.66,9-3.93,3.65-3.11,9-2.72,15.75-9.76,1.69-2,3.37-5.63,5.35-10.69,1.41-4.5,2.25-7.32,2.25-8.45C191,112.39,189.62,110.7,189.62,109.85Z" transform="translate(-2.4 -2.29)"/></svg>